<svg width="175" height="29" viewBox="0 0 175 29" fill="none" xmlns="http://www.w3.org/2000/svg">
<path d="M-8.9407e-08 21.322L0.252 20.692L2.702 20.16L10.612 1.148L8.456 0.616001L8.708 7.15256e-07H15.358C17.374 7.15256e-07 18.9373 0.424668 20.048 1.274C21.168 2.12333 21.728 3.318 21.728 4.858C21.728 6.258 21.3127 7.48534 20.482 8.54C19.6607 9.59467 18.508 10.416 17.024 11.004C15.5493 11.5827 13.8227 11.872 11.844 11.872H9.114L5.74 20.16L9.03 20.692L8.778 21.322H-8.9407e-08ZM9.646 10.654H12.222C13.4447 10.654 14.5553 10.3787 15.554 9.828C16.562 9.268 17.3647 8.52134 17.962 7.588C18.5593 6.64534 18.858 5.60934 18.858 4.48C18.858 3.39734 18.5593 2.56667 17.962 1.988C17.3647 1.40933 16.4967 1.12 15.358 1.12H13.664L9.646 10.654ZM19.2148 21.322L24.5628 8.96C24.6374 8.764 24.7074 8.57734 24.7728 8.4C24.8381 8.22267 24.8708 8.06867 24.8708 7.938C24.8708 7.714 24.7448 7.602 24.4928 7.602C24.2874 7.602 24.0214 7.70467 23.6948 7.91C23.3681 8.106 23.0134 8.38134 22.6308 8.736C22.2574 9.08134 21.8841 9.48734 21.5108 9.954L20.9928 9.52C21.7301 8.57733 22.5514 7.81667 23.4568 7.238C24.3621 6.65 25.1928 6.356 25.9488 6.356C26.3314 6.356 26.6394 6.47734 26.8728 6.72C27.1154 6.95334 27.2368 7.30334 27.2368 7.77C27.2368 8.14334 27.1574 8.54 26.9988 8.96C26.8401 9.38 26.5274 9.97733 26.0608 10.752L26.1868 10.794C27.1481 9.226 28.0581 8.09667 28.9168 7.406C29.7848 6.706 30.6714 6.356 31.5768 6.356C32.1741 6.356 32.6688 6.496 33.0608 6.776C33.4528 7.056 33.6488 7.434 33.6488 7.91C33.6488 8.28334 33.5414 8.58667 33.3268 8.82C33.1214 9.044 32.8228 9.156 32.4308 9.156C32.0761 9.156 31.8101 9.072 31.6328 8.904C31.4554 8.736 31.2828 8.57267 31.1148 8.414C30.9468 8.246 30.6901 8.162 30.3448 8.162C29.9528 8.162 29.5421 8.32534 29.1128 8.652C28.6928 8.97867 28.2448 9.46867 27.7688 10.122C27.2928 10.766 26.7794 11.578 26.2288 12.558C25.6874 13.5287 25.1041 14.6627 24.4788 15.96L21.9028 21.322H19.2148ZM34.6977 21.616C33.5497 21.616 32.6584 21.2893 32.0237 20.636C31.3984 19.9733 31.0857 19.0447 31.0857 17.85C31.0857 16.8327 31.305 15.7873 31.7437 14.714C32.1917 13.6407 32.7937 12.6093 33.5497 11.62C34.3057 10.6213 35.1597 9.72534 36.1117 8.932C37.0637 8.13867 38.053 7.51334 39.0797 7.056C40.1157 6.58934 41.1237 6.356 42.1037 6.356C42.925 6.356 43.5737 6.524 44.0497 6.86C44.5257 7.196 44.7637 7.66267 44.7637 8.26C44.7637 9.03467 44.3624 9.79067 43.5597 10.528C42.7664 11.2653 41.6604 11.928 40.2417 12.516C38.8324 13.0947 37.2037 13.5473 35.3557 13.874C34.8237 14.854 34.427 15.7593 34.1657 16.59C33.9044 17.4113 33.7737 18.1393 33.7737 18.774C33.7737 20.006 34.3104 20.622 35.3837 20.622C35.953 20.622 36.5737 20.468 37.2457 20.16C37.927 19.8427 38.599 19.4087 39.2617 18.858C39.9337 18.298 40.5404 17.654 41.0817 16.926L41.6837 17.304C40.5544 18.732 39.397 19.81 38.2117 20.538C37.0357 21.2567 35.8644 21.616 34.6977 21.616ZM35.9717 12.936C37.1197 12.712 38.193 12.3387 39.1917 11.816C40.1997 11.284 41.0117 10.682 41.6277 10.01C42.253 9.338 42.5657 8.68467 42.5657 8.05C42.5657 7.49 42.2624 7.21 41.6557 7.21C41.161 7.21 40.6197 7.392 40.0317 7.756C39.4437 8.11067 38.8697 8.596 38.3097 9.212C37.7497 9.828 37.2597 10.5327 36.8397 11.326L35.9717 12.936ZM45.5965 21.616C44.4578 21.616 43.8885 21.07 43.8885 19.978C43.8885 19.67 43.9305 19.3247 44.0145 18.942C44.0985 18.55 44.2758 17.9947 44.5465 17.276C44.8171 16.5573 45.2325 15.554 45.7925 14.266L48.6905 7.532H46.4085L46.6885 6.636H49.0825L50.8185 2.562L53.8005 2.282L51.9245 6.636H54.3465L54.0525 7.532H51.5465L49.2225 12.88C48.6158 14.2707 48.1398 15.3767 47.7945 16.198C47.4491 17.01 47.1925 17.6213 47.0245 18.032C46.8658 18.4427 46.7631 18.732 46.7165 18.9C46.6698 19.068 46.6465 19.2033 46.6465 19.306C46.6465 19.7447 46.8518 19.964 47.2625 19.964C47.5425 19.964 47.9065 19.7913 48.3545 19.446C48.8025 19.0913 49.3951 18.522 50.1325 17.738L50.6925 18.088C49.8058 19.208 48.9051 20.076 47.9905 20.692C47.0758 21.308 46.2778 21.616 45.5965 21.616ZM55.5769 21.616C54.4383 21.616 53.8689 21.07 53.8689 19.978C53.8689 19.67 53.9109 19.3247 53.9949 18.942C54.0789 18.55 54.2563 17.9947 54.5269 17.276C54.7976 16.5573 55.2129 15.554 55.7729 14.266L58.6709 7.532H56.3889L56.6689 6.636H59.0629L60.7989 2.562L63.7809 2.282L61.9049 6.636H64.3269L64.0329 7.532H61.5269L59.2029 12.88C58.5963 14.2707 58.1203 15.3767 57.7749 16.198C57.4296 17.01 57.1729 17.6213 57.0049 18.032C56.8463 18.4427 56.7436 18.732 56.6969 18.9C56.6503 19.068 56.6269 19.2033 56.6269 19.306C56.6269 19.7447 56.8323 19.964 57.2429 19.964C57.5229 19.964 57.8869 19.7913 58.3349 19.446C58.7829 19.0913 59.3756 18.522 60.1129 17.738L60.6729 18.088C59.7863 19.208 58.8856 20.076 57.9709 20.692C57.0563 21.308 56.2583 21.616 55.5769 21.616ZM61.9174 28.42C61.2267 28.42 60.6527 28.2753 60.1954 27.986C59.7381 27.706 59.5094 27.3233 59.5094 26.838C59.5094 26.474 59.6214 26.1847 59.8454 25.97C60.0694 25.7647 60.3867 25.662 60.7974 25.662C61.1521 25.662 61.4274 25.732 61.6234 25.872C61.8101 26.012 61.9687 26.1707 62.0994 26.348C62.2301 26.5253 62.3794 26.684 62.5474 26.824C62.7061 26.964 62.9347 27.034 63.2334 27.034C63.5881 27.034 63.9754 26.908 64.3954 26.656C64.8247 26.404 65.2307 26.0493 65.6134 25.592C65.8654 25.2933 66.0801 25.0087 66.2574 24.738C66.4347 24.4673 66.5794 24.1407 66.6914 23.758C66.8127 23.3753 66.9061 22.8667 66.9714 22.232C67.0461 21.6067 67.0974 20.7947 67.1254 19.796C67.1534 18.7973 67.1674 17.542 67.1674 16.03C67.1674 14.49 67.1441 13.1927 67.0974 12.138C67.0507 11.0833 66.9761 10.2387 66.8734 9.604C66.7707 8.96934 66.6354 8.512 66.4674 8.232C66.2994 7.94267 66.0941 7.798 65.8514 7.798C65.3941 7.798 64.7734 8.30667 63.9894 9.324L63.4574 8.904C63.9334 8.11067 64.5587 7.49 65.3334 7.042C66.1081 6.58467 66.8921 6.356 67.6854 6.356C68.1707 6.356 68.5721 6.47734 68.8894 6.72C69.2161 6.95334 69.4727 7.378 69.6594 7.994C69.8554 8.60067 69.9954 9.45934 70.0794 10.57C70.1634 11.6807 70.2054 13.104 70.2054 14.84C70.2054 15.5773 70.1867 16.3567 70.1494 17.178C70.1214 17.99 70.0794 18.9093 70.0234 19.936L70.1214 20.02C70.8961 19.0587 71.5867 18.0133 72.1934 16.884C72.8001 15.7453 73.2761 14.6533 73.6214 13.608C73.9667 12.5627 74.1394 11.69 74.1394 10.99C74.1394 10.3647 74.1207 9.90734 74.0834 9.618C74.0461 9.31934 74.0087 9.06267 73.9714 8.848C73.9341 8.63334 73.9154 8.344 73.9154 7.98C73.9154 7.504 74.0461 7.11667 74.3074 6.818C74.5781 6.51 74.9187 6.356 75.3294 6.356C75.7401 6.356 76.0714 6.51467 76.3234 6.832C76.5847 7.14 76.7154 7.56 76.7154 8.092C76.7154 8.75467 76.5381 9.61334 76.1834 10.668C75.8381 11.7133 75.3574 12.8707 74.7414 14.14C74.1347 15.4093 73.4301 16.7113 72.6274 18.046C71.8247 19.3713 70.9661 20.65 70.0514 21.882C69.1367 23.114 68.2034 24.22 67.2514 25.2C66.3087 26.1893 65.3801 26.9733 64.4654 27.552C63.5507 28.1307 62.7014 28.42 61.9174 28.42ZM83.137 21.322L83.403 20.692L85.965 20.16L93.833 1.148L91.663 0.616001L91.957 7.15256e-07H97.655C99.4844 7.15256e-07 101.071 0.289334 102.415 0.868001C103.768 1.44667 104.814 2.31467 105.551 3.472C106.298 4.62 106.671 6.06667 106.671 7.812C106.671 9.55734 106.302 11.2373 105.565 12.852C104.837 14.4667 103.801 15.9133 102.457 17.192C101.122 18.4613 99.545 19.4693 97.725 20.216C95.905 20.9533 93.903 21.322 91.719 21.322H83.137ZM91.635 20.16C93.1937 20.16 94.687 19.8147 96.115 19.124C97.5524 18.424 98.831 17.472 99.951 16.268C101.08 15.0547 101.972 13.6687 102.625 12.11C103.278 10.5513 103.605 8.90867 103.605 7.182C103.605 5.06333 103.073 3.51867 102.009 2.548C100.954 1.57733 99.4937 1.092 97.627 1.092H96.871L89.983 17.738C89.7404 18.3073 89.619 18.76 89.619 19.096C89.619 19.4787 89.7684 19.754 90.067 19.922C90.375 20.0807 90.8977 20.16 91.635 20.16ZM110.659 21.616C109.511 21.616 108.619 21.2893 107.985 20.636C107.359 19.9733 107.047 19.0447 107.047 17.85C107.047 16.8327 107.266 15.7873 107.705 14.714C108.153 13.6407 108.755 12.6093 109.511 11.62C110.267 10.6213 111.121 9.72534 112.073 8.932C113.025 8.13867 114.014 7.51334 115.041 7.056C116.077 6.58934 117.085 6.356 118.065 6.356C118.886 6.356 119.535 6.524 120.011 6.86C120.487 7.196 120.725 7.66267 120.725 8.26C120.725 9.03467 120.323 9.79067 119.521 10.528C118.727 11.2653 117.621 11.928 116.203 12.516C114.793 13.0947 113.165 13.5473 111.317 13.874C110.785 14.854 110.388 15.7593 110.127 16.59C109.865 17.4113 109.735 18.1393 109.735 18.774C109.735 20.006 110.271 20.622 111.345 20.622C111.914 20.622 112.535 20.468 113.207 20.16C113.888 19.8427 114.56 19.4087 115.223 18.858C115.895 18.298 116.501 17.654 117.043 16.926L117.645 17.304C116.515 18.732 115.358 19.81 114.173 20.538C112.997 21.2567 111.825 21.616 110.659 21.616ZM111.933 12.936C113.081 12.712 114.154 12.3387 115.153 11.816C116.161 11.284 116.973 10.682 117.589 10.01C118.214 9.338 118.527 8.68467 118.527 8.05C118.527 7.49 118.223 7.21 117.617 7.21C117.122 7.21 116.581 7.392 115.993 7.756C115.405 8.11067 114.831 8.596 114.271 9.212C113.711 9.828 113.221 10.5327 112.801 11.326L111.933 12.936ZM123.94 21.616C122.755 21.616 121.864 21.252 121.266 20.524C120.669 19.796 120.37 18.7413 120.37 17.36C120.37 16.3427 120.552 15.3253 120.916 14.308C121.28 13.2907 121.808 12.3153 122.498 11.382C123.189 10.4393 124.02 9.59 124.99 8.834C125.989 8.05934 127.03 7.45267 128.112 7.014C129.204 6.57534 130.212 6.356 131.136 6.356C132.098 6.356 132.896 6.608 133.53 7.112C134.165 7.60667 134.482 8.19933 134.482 8.89C134.482 9.21667 134.37 9.48267 134.146 9.688C133.922 9.884 133.628 9.982 133.264 9.982C132.546 9.982 132.121 9.54333 131.99 8.666C131.906 8.14334 131.771 7.77 131.584 7.546C131.407 7.322 131.146 7.21 130.8 7.21C130.138 7.21 129.447 7.462 128.728 7.966C128.01 8.47 127.314 9.142 126.642 9.982C125.98 10.8127 125.382 11.732 124.85 12.74C124.318 13.7387 123.894 14.7467 123.576 15.764C123.259 16.7813 123.1 17.7193 123.1 18.578C123.1 19.2687 123.222 19.782 123.464 20.118C123.716 20.454 124.141 20.622 124.738 20.622C125.513 20.622 126.4 20.314 127.398 19.698C128.406 19.082 129.512 18.158 130.716 16.926L131.332 17.276C130.119 18.6947 128.887 19.7727 127.636 20.51C126.395 21.2473 125.163 21.616 123.94 21.616ZM136.854 21.616C135.706 21.616 134.815 21.2893 134.18 20.636C133.555 19.9733 133.242 19.0447 133.242 17.85C133.242 16.8327 133.461 15.7873 133.9 14.714C134.348 13.6407 134.95 12.6093 135.706 11.62C136.462 10.6213 137.316 9.72534 138.268 8.932C139.22 8.13867 140.209 7.51334 141.236 7.056C142.272 6.58934 143.28 6.356 144.26 6.356C145.081 6.356 145.73 6.524 146.206 6.86C146.682 7.196 146.92 7.66267 146.92 8.26C146.92 9.03467 146.519 9.79067 145.716 10.528C144.923 11.2653 143.817 11.928 142.398 12.516C140.989 13.0947 139.36 13.5473 137.512 13.874C136.98 14.854 136.583 15.7593 136.322 16.59C136.061 17.4113 135.93 18.1393 135.93 18.774C135.93 20.006 136.467 20.622 137.54 20.622C138.109 20.622 138.73 20.468 139.402 20.16C140.083 19.8427 140.755 19.4087 141.418 18.858C142.09 18.298 142.697 17.654 143.238 16.926L143.84 17.304C142.711 18.732 141.553 19.81 140.368 20.538C139.192 21.2567 138.021 21.616 136.854 21.616ZM138.128 12.936C139.276 12.712 140.349 12.3387 141.348 11.816C142.356 11.284 143.168 10.682 143.784 10.01C144.409 9.338 144.722 8.68467 144.722 8.05C144.722 7.49 144.419 7.21 143.812 7.21C143.317 7.21 142.776 7.392 142.188 7.756C141.6 8.11067 141.026 8.596 140.466 9.212C139.906 9.828 139.416 10.5327 138.996 11.326L138.128 12.936ZM156.266 21.616C155.174 21.616 154.628 21.1213 154.628 20.132C154.628 19.3387 154.964 18.2793 155.636 16.954L159.402 9.492C159.504 9.296 159.588 9.07667 159.654 8.834C159.719 8.59134 159.752 8.36734 159.752 8.162C159.752 7.602 159.458 7.322 158.87 7.322C158.496 7.322 158.076 7.462 157.61 7.742C157.143 8.022 156.653 8.41867 156.14 8.932C155.626 9.44534 155.099 10.0613 154.558 10.78C154.026 11.4893 153.498 12.2827 152.976 13.16C152.453 14.028 151.954 14.9613 151.478 15.96L148.888 21.322H146.2L151.52 8.96C151.734 8.47467 151.842 8.162 151.842 8.022C151.842 7.742 151.706 7.602 151.436 7.602C151.23 7.602 150.969 7.7 150.652 7.896C150.344 8.092 150.003 8.36734 149.63 8.722C149.266 9.07667 148.897 9.48734 148.524 9.954L147.95 9.52C148.668 8.54934 149.499 7.77934 150.442 7.21C151.394 6.64067 152.313 6.356 153.2 6.356C154.077 6.356 154.516 6.72934 154.516 7.476C154.516 7.84934 154.422 8.28334 154.236 8.778C154.058 9.26334 153.75 9.92134 153.312 10.752L153.424 10.794C154.609 9.226 155.687 8.10134 156.658 7.42C157.628 6.72934 158.622 6.384 159.64 6.384C161.32 6.384 162.16 7.18667 162.16 8.792C162.16 9.58533 161.936 10.4347 161.488 11.34L158.226 17.962C158.067 18.298 157.936 18.6153 157.834 18.914C157.731 19.2033 157.68 19.4273 157.68 19.586C157.68 19.838 157.792 19.964 158.016 19.964C158.342 19.964 158.786 19.7493 159.346 19.32C159.906 18.8813 160.54 18.2653 161.25 17.472L161.838 17.892C160.848 19.1147 159.887 20.0433 158.954 20.678C158.02 21.3033 157.124 21.616 156.266 21.616ZM165.718 21.616C164.579 21.616 164.01 21.07 164.01 19.978C164.01 19.67 164.052 19.3247 164.136 18.942C164.22 18.55 164.397 17.9947 164.668 17.276C164.938 16.5573 165.354 15.554 165.914 14.266L168.812 7.532H166.53L166.81 6.636H169.204L170.94 2.562L173.922 2.282L172.046 6.636H174.468L174.174 7.532H171.668L169.344 12.88C168.737 14.2707 168.261 15.3767 167.916 16.198C167.57 17.01 167.314 17.6213 167.146 18.032C166.987 18.4427 166.884 18.732 166.838 18.9C166.791 19.068 166.768 19.2033 166.768 19.306C166.768 19.7447 166.973 19.964 167.384 19.964C167.664 19.964 168.028 19.7913 168.476 19.446C168.924 19.0913 169.516 18.522 170.254 17.738L170.814 18.088C169.927 19.208 169.026 20.076 168.112 20.692C167.197 21.308 166.399 21.616 165.718 21.616Z" fill="#061B0E"/>
</svg>
